<svg width="191" height="30" viewBox="0 0 191 30" fill="none" xmlns="http://www.w3.org/2000/svg">
<path d="M19.7236 22.8494L6.91493 0.217621H0L15.4901 27.7185L16.4166 28.7249C17.4412 29.4254 18.6314 29.7824 19.8251 29.7824C20.7921 29.7824 21.7592 29.5512 22.6485 29.082C24.63 28.0381 25.8439 26.015 25.8203 23.798V0.36383H19.7202V22.8494H19.7236Z" fill="#E74523"/>
<path d="M35.8206 12.795V17.205C35.8206 24.2605 41.6061 30 48.7205 30H52.8661V23.6314H48.7205C45.3358 23.6314 42.5394 21.1119 42.1911 17.8851H52.7951V11.9823H42.2114C42.6205 8.82353 45.3831 6.36858 48.7239 6.36858H52.8695V0H48.7239C41.6095 0 35.8239 5.73954 35.8239 12.795H35.8206Z" fill="#E74523"/>
<path d="M70.6064 3.28969C68.2733 4.80618 66.2546 6.84971 64.6045 9.36586C62.0752 13.2251 62.3322 18.2336 65.2402 21.8344C67.012 24.0309 69.0612 25.8092 71.3301 27.1251C74.353 28.8796 77.704 29.7671 81.2882 29.7671H84.3382V23.7691H81.2882C78.8097 23.7691 76.5002 23.1605 74.4274 21.9568C72.8043 21.015 71.3199 19.7195 70.0147 18.101C68.7332 16.5131 68.6182 14.3064 69.7307 12.6097C70.9175 10.7973 72.3445 9.34546 73.9675 8.28799C76.0708 6.92111 78.5358 6.22747 81.2882 6.22747H84.3382V0.23291H81.2882C77.3185 0.23291 73.7241 1.25977 70.6031 3.28969H70.6064Z" fill="#E74523"/>
<path d="M94.3381 6.23087H101.246V29.7671H107.35V6.23087H114.981V0.23291H94.3381V6.23087Z" fill="#E74523"/>
<path d="M145.628 14.5784C146.829 13.1843 147.491 11.5114 147.545 9.73988C147.6 7.96157 147.042 6.25127 145.922 4.79598L145.696 4.50356C143.616 1.7902 140.181 0.168304 136.505 0.168304H124.981V29.8317H131.081V18.4784H131.227L146.223 29.8215H154.988L140.228 17.9786C142.345 17.3563 144.242 16.1799 145.621 14.575L145.628 14.5784ZM131.088 12.4566V6.19007H136.512C138.26 6.19007 139.917 6.93471 140.837 8.13498L141.063 8.4274C141.611 9.14144 141.581 9.98129 140.982 10.6749C140.025 11.7868 138.453 12.4532 136.776 12.4532H131.092L131.088 12.4566Z" fill="#E74523"/>
<path d="M175.322 2.28154L174.395 1.27508C173.371 0.574642 172.18 0.217621 170.983 0.217621C170.016 0.217621 169.049 0.448835 168.16 0.918063C166.178 1.96193 164.964 3.98505 164.988 6.20198V29.6362H171.088V7.15064L183.897 29.7824H190.812L175.322 2.28154Z" fill="#E74523"/>
</svg>
