<svg width="220" height="130" viewBox="0 0 220 130" fill="none" xmlns="http://www.w3.org/2000/svg">
<rect width="220" height="130" fill="white"/>
<path fill-rule="evenodd" clip-rule="evenodd" d="M99.8428 30.9085V20H130.051V45.1735C130.051 51.0568 119.769 54.911 115.786 56.0821V30.9085H99.8428Z" fill="#FA744E"/>
<path fill-rule="evenodd" clip-rule="evenodd" d="M90.6123 49.7034V35.1041H111.59V66.9906C111.59 66.9906 90.6123 58.2509 90.6123 49.7034Z" fill="#1DBAB0"/>
<path fill-rule="evenodd" clip-rule="evenodd" d="M99.0029 35.1041H111.59V56.0821C106.896 54.3725 99.0029 50.4533 99.0029 45.528V35.1041Z" fill="#343741"/>
<path fill-rule="evenodd" clip-rule="evenodd" d="M110.672 100.21C114.507 100.21 117.055 98.0013 117.055 94.7009C117.055 90.902 114.166 90.1638 111.688 89.5308C109.828 89.0556 108.199 88.6397 108.199 87.0331C108.199 85.7179 109.234 84.9734 110.748 84.9734C112.413 84.9734 113.498 85.8916 113.775 87.3556L117.005 86.7849C116.525 83.9808 114.204 82.0948 110.849 82.0948C107.316 82.0948 104.819 84.2289 104.819 87.306C104.819 91.1008 107.68 91.8481 110.15 92.4931C112.025 92.9827 113.674 93.4134 113.674 95.0731C113.674 96.438 112.539 97.3561 110.798 97.3561C109.133 97.3561 107.67 96.4876 107.367 94.9987L104.137 95.6687C104.667 98.4976 107.417 100.21 110.672 100.21ZM37.8833 99.8368V96.8341H29.3304V92.6156H35.7892V89.6129H29.3304V85.4688H37.8833V82.4662H26V99.8368H37.8833ZM43.9383 99.8376V82.467H40.7593V99.8376H43.9383ZM54.1058 98.6714C53.5255 99.5647 52.0874 100.185 50.6493 100.185C48.1768 100.185 46.4359 98.6465 46.4359 96.4876C46.4359 94.0309 48.3786 92.5668 51.5828 92.5668C52.6173 92.5668 53.6517 92.7902 54.0554 93.0135V92.145C54.0554 90.8546 53.2985 90.1101 52.0117 90.1101C50.9268 90.1101 50.2456 90.6313 49.9681 91.2765L46.7891 91.0283C47.4956 88.8694 49.4635 87.6286 52.2136 87.6286C55.4178 87.6286 57.2091 89.3161 57.2091 92.3435V99.8377H54.2068V98.6714H54.1058ZM51.5566 97.7534C50.3455 97.7534 49.6391 97.1578 49.6391 96.2396C49.6391 95.3215 50.4717 94.7259 51.935 94.7259C52.8686 94.7259 53.7516 94.9493 54.1048 95.247V96.0163C54.1048 96.9345 52.919 97.7534 51.5566 97.7534ZM69.294 96.2395C69.294 98.6465 67.3009 100.21 64.349 100.21C61.7503 100.21 59.858 99.0188 59.202 96.9343L62.1287 96.3884C62.381 97.3065 63.3145 97.9021 64.4246 97.9021C65.5095 97.9021 66.1403 97.3313 66.1403 96.4628C66.1403 95.5172 65.0602 95.3007 63.7851 95.0451C61.9482 94.6768 59.7066 94.2275 59.7066 91.4005C59.7066 89.1424 61.5737 87.6286 64.3237 87.6286C66.7963 87.6286 68.7137 88.8446 69.2183 90.6561L66.2664 91.2765C66.1151 90.5072 65.3582 89.9861 64.3994 89.9861C63.4154 89.9861 62.8604 90.5072 62.8604 91.1772C62.8604 92.1374 63.9507 92.3576 65.2336 92.6166C67.0671 92.9867 69.294 93.4363 69.294 96.2395ZM76.5863 100.086C77.4946 100.086 78.2263 99.937 78.6552 99.7633L78.3272 97.2817C78.0497 97.4058 77.6965 97.5051 77.2171 97.5051C76.0313 97.5051 75.4258 97.0088 75.4258 95.4206V90.6561H78.529V88.0009H75.4258V84.2538L72.2468 84.8742V88.0009H70.1779V90.6561H72.2468V95.9169C72.2468 99.0436 74.0633 100.086 76.5863 100.086ZM83.5496 82.467V85.4696H80.3706V82.467H83.5496ZM83.5496 99.8377V88.0009H80.3706V99.8377H83.5496ZM97.4014 96.3884C96.6698 98.8451 94.6766 100.21 91.977 100.21C88.243 100.21 85.7452 97.6043 85.7452 93.9069C85.7452 90.0357 88.4448 87.6286 91.8004 87.6286C94.9037 87.6286 96.8716 89.0679 97.5528 91.7728L94.4748 92.1946C94.1215 91.0531 93.2133 90.3831 91.8761 90.3831C89.9838 90.3831 88.9242 91.8472 88.9242 93.9317C88.9242 95.9913 89.9838 97.4802 91.8761 97.4802C93.2133 97.4802 94.0711 96.7606 94.4243 95.6439L97.4014 96.3884ZM130.401 96.9095C129.392 99.0932 127.601 100.21 125.128 100.21C121.394 100.21 118.745 97.5795 118.745 93.9565C118.745 90.3583 121.293 87.6286 124.826 87.6286C128.232 87.6286 130.856 89.9861 130.881 94.0557V94.8002H121.975C122.277 96.5124 123.488 97.6539 125.154 97.6539C126.339 97.6539 127.248 97.108 127.752 96.165L130.401 96.9095ZM127.577 92.6662H122.001C122.329 90.9043 123.388 90.0358 124.877 90.0358C126.29 90.0358 127.476 90.8795 127.577 92.6662ZM143.951 96.3884C143.219 98.8451 141.226 100.21 138.526 100.21C134.792 100.21 132.295 97.6043 132.295 93.9069C132.295 90.0357 134.994 87.6286 138.35 87.6286C141.453 87.6286 143.421 89.0679 144.102 91.7728L141.024 92.1946C140.671 91.0531 139.763 90.3831 138.425 90.3831C136.533 90.3831 135.474 91.8472 135.474 93.9317C135.474 95.9913 136.533 97.4802 138.425 97.4802C139.763 97.4802 140.62 96.7606 140.974 95.6439L143.951 96.3884ZM150.006 100.21C151.671 100.21 153.008 99.4159 153.664 98.3736H153.79V99.8377H156.692V88.0009H153.513V94.8003C153.513 96.4133 152.403 97.4803 150.99 97.4803C149.728 97.4803 148.971 96.6366 148.971 94.9988V88.0009H145.792V95.5944C145.792 98.4977 147.407 100.21 150.006 100.21ZM162.746 94.5272V99.8376H159.567V88.0008H162.519V89.9116H162.57C163.175 88.5715 164.386 87.8023 165.774 87.8023C166.178 87.8023 166.506 87.8767 166.682 87.976V90.9786C166.455 90.8794 166.102 90.8297 165.799 90.8297C164.058 90.8297 162.746 91.7479 162.746 94.5272ZM171.552 85.4696V82.467H168.373V85.4696H171.552ZM171.552 88.0009V99.8377H168.373V88.0009H171.552ZM179.625 100.086C180.534 100.086 181.265 99.937 181.694 99.7633L181.366 97.2817C181.089 97.4058 180.735 97.5051 180.256 97.5051C179.07 97.5051 178.465 97.0088 178.465 95.4206V90.6561H181.568V88.0009H178.465V84.2538L175.286 84.8742V88.0009H173.217V90.6561H175.286V95.9169C175.286 99.0436 177.102 100.086 179.625 100.086ZM194.662 88.0009L187.925 104.751H184.797L186.992 99.3662L182.173 88.0009H185.629L188.707 95.7184L191.508 88.0009H194.662Z" fill="#343741"/>
</svg>
